<mxfile host="app.diagrams.net" modified="2024-02-09T13:52:34.508Z" agent="Mozilla/5.0 (Windows NT 10.0; Win64; x64; rv:122.0) Gecko/20100101 Firefox/122.0" etag="Y3a71hp3yMpgMg8TiQI3" version="23.1.2" type="github" pages="4">
  <diagram id="PvYHt_fChEzfOzfAGmBY" name="Цикл с условием">
    <mxGraphModel dx="1434" dy="754" grid="1" gridSize="10" guides="1" tooltips="1" connect="1" arrows="1" fold="1" page="1" pageScale="1" pageWidth="827" pageHeight="1169" math="0" shadow="0">
      <root>
        <mxCell id="0" />
        <mxCell id="1" parent="0" />
        <mxCell id="XVGe4CrBt8VKoz3wxpU5-4" value="&lt;div style=&quot;font-size: 20px;&quot;&gt;Название цикла&lt;/div&gt;&lt;div style=&quot;font-size: 20px;&quot;&gt;Условие цикла&lt;br style=&quot;font-size: 20px;&quot;&gt;&lt;/div&gt;" style="shape=loopLimit;whiteSpace=wrap;html=1;shadow=0;strokeColor=#000000;fillColor=#ffffff;gradientColor=none;strokeWidth=2;fontFamily=Times New Roman;fontSize=20;" parent="1" vertex="1">
          <mxGeometry x="100" y="80" width="180" height="80" as="geometry" />
        </mxCell>
        <mxCell id="XVGe4CrBt8VKoz3wxpU5-5" value="&lt;div style=&quot;font-size: 20px;&quot;&gt;Название цикла&lt;/div&gt;" style="shape=loopLimit;whiteSpace=wrap;html=1;shadow=0;strokeColor=#000000;fillColor=#ffffff;gradientColor=none;direction=west;strokeWidth=2;fontFamily=Times New Roman;fontSize=20;" parent="1" vertex="1">
          <mxGeometry x="100" y="310" width="180" height="80" as="geometry" />
        </mxCell>
        <mxCell id="XVGe4CrBt8VKoz3wxpU5-6" value="Тело цикла" style="rounded=1;whiteSpace=wrap;html=1;absoluteArcSize=1;arcSize=0;strokeWidth=2;shadow=0;fillColor=#ffffff;gradientColor=none;fontFamily=Times New Roman;fontSize=20;" parent="1" vertex="1">
          <mxGeometry x="100" y="200" width="180" height="60" as="geometry" />
        </mxCell>
        <mxCell id="XVGe4CrBt8VKoz3wxpU5-7" value="&lt;div style=&quot;font-size: 20px&quot;&gt;Название цикла&lt;/div&gt;" style="shape=loopLimit;whiteSpace=wrap;html=1;shadow=0;strokeColor=#000000;fillColor=#ffffff;gradientColor=none;strokeWidth=2;fontFamily=Times New Roman;fontSize=20;" parent="1" vertex="1">
          <mxGeometry x="430" y="80" width="180" height="80" as="geometry" />
        </mxCell>
        <mxCell id="XVGe4CrBt8VKoz3wxpU5-8" value="&lt;div style=&quot;font-size: 20px&quot;&gt;Условие цикла&lt;/div&gt;&lt;div style=&quot;font-size: 20px&quot;&gt;Название цикла&lt;/div&gt;" style="shape=loopLimit;whiteSpace=wrap;html=1;shadow=0;strokeColor=#000000;fillColor=#ffffff;gradientColor=none;direction=west;strokeWidth=2;fontFamily=Times New Roman;fontSize=20;" parent="1" vertex="1">
          <mxGeometry x="430" y="310" width="180" height="80" as="geometry" />
        </mxCell>
        <mxCell id="XVGe4CrBt8VKoz3wxpU5-9" value="Тело цикла" style="rounded=1;whiteSpace=wrap;html=1;absoluteArcSize=1;arcSize=0;strokeWidth=2;shadow=0;fillColor=#ffffff;gradientColor=none;fontFamily=Times New Roman;fontSize=20;" parent="1" vertex="1">
          <mxGeometry x="430" y="200" width="180" height="60" as="geometry" />
        </mxCell>
        <mxCell id="XVGe4CrBt8VKoz3wxpU5-10" value="" style="endArrow=none;html=1;fontFamily=Times New Roman;fontSize=20;exitX=0.5;exitY=1;exitDx=0;exitDy=0;strokeWidth=2;endFill=0;" parent="1" source="XVGe4CrBt8VKoz3wxpU5-4" target="XVGe4CrBt8VKoz3wxpU5-6" edge="1">
          <mxGeometry width="50" height="50" relative="1" as="geometry">
            <mxPoint x="200" y="520" as="sourcePoint" />
            <mxPoint x="250" y="470" as="targetPoint" />
          </mxGeometry>
        </mxCell>
        <mxCell id="XVGe4CrBt8VKoz3wxpU5-11" value="" style="endArrow=none;html=1;strokeWidth=2;fontFamily=Times New Roman;fontSize=20;exitX=0.5;exitY=1;exitDx=0;exitDy=0;entryX=0.5;entryY=1;entryDx=0;entryDy=0;endFill=0;" parent="1" source="XVGe4CrBt8VKoz3wxpU5-6" target="XVGe4CrBt8VKoz3wxpU5-5" edge="1">
          <mxGeometry width="50" height="50" relative="1" as="geometry">
            <mxPoint x="220" y="540" as="sourcePoint" />
            <mxPoint x="270" y="490" as="targetPoint" />
          </mxGeometry>
        </mxCell>
        <mxCell id="XVGe4CrBt8VKoz3wxpU5-12" value="" style="endArrow=none;html=1;strokeWidth=2;fontFamily=Times New Roman;fontSize=20;exitX=0.5;exitY=1;exitDx=0;exitDy=0;entryX=0.5;entryY=0;entryDx=0;entryDy=0;endFill=0;" parent="1" source="XVGe4CrBt8VKoz3wxpU5-7" target="XVGe4CrBt8VKoz3wxpU5-9" edge="1">
          <mxGeometry width="50" height="50" relative="1" as="geometry">
            <mxPoint x="700" y="230" as="sourcePoint" />
            <mxPoint x="750" y="180" as="targetPoint" />
          </mxGeometry>
        </mxCell>
        <mxCell id="XVGe4CrBt8VKoz3wxpU5-13" value="" style="endArrow=none;html=1;strokeWidth=2;fontFamily=Times New Roman;fontSize=20;exitX=0.5;exitY=1;exitDx=0;exitDy=0;endFill=0;" parent="1" source="XVGe4CrBt8VKoz3wxpU5-9" target="XVGe4CrBt8VKoz3wxpU5-8" edge="1">
          <mxGeometry width="50" height="50" relative="1" as="geometry">
            <mxPoint x="420" y="560" as="sourcePoint" />
            <mxPoint x="470" y="510" as="targetPoint" />
          </mxGeometry>
        </mxCell>
        <mxCell id="b3CAW3UGCJv-GjKRpFVh-3" style="edgeStyle=orthogonalEdgeStyle;rounded=0;orthogonalLoop=1;jettySize=auto;html=1;exitX=0.5;exitY=1;exitDx=0;exitDy=0;entryX=0.5;entryY=0;entryDx=0;entryDy=0;endArrow=none;endFill=0;strokeWidth=2;fontFamily=Times New Roman;fontSize=19;" parent="1" source="b3CAW3UGCJv-GjKRpFVh-1" target="b3CAW3UGCJv-GjKRpFVh-2" edge="1">
          <mxGeometry relative="1" as="geometry" />
        </mxCell>
        <mxCell id="b3CAW3UGCJv-GjKRpFVh-5" style="edgeStyle=orthogonalEdgeStyle;rounded=0;orthogonalLoop=1;jettySize=auto;html=1;exitX=1;exitY=0.5;exitDx=0;exitDy=0;strokeWidth=2;fontFamily=Times New Roman;fontSize=19;" parent="1" source="b3CAW3UGCJv-GjKRpFVh-1" edge="1">
          <mxGeometry relative="1" as="geometry">
            <mxPoint x="360" y="840" as="targetPoint" />
            <Array as="points">
              <mxPoint x="480" y="630" />
              <mxPoint x="480" y="790" />
              <mxPoint x="361" y="790" />
            </Array>
          </mxGeometry>
        </mxCell>
        <mxCell id="b3CAW3UGCJv-GjKRpFVh-1" value="i:= 1..N" style="verticalLabelPosition=middle;verticalAlign=middle;html=1;shape=hexagon;perimeter=hexagonPerimeter2;arcSize=6;size=0.27;strokeWidth=2;labelPosition=center;align=center;fontFamily=Times New Roman;fontSize=19;" parent="1" vertex="1">
          <mxGeometry x="300" y="600" width="120" height="60" as="geometry" />
        </mxCell>
        <mxCell id="b3CAW3UGCJv-GjKRpFVh-4" style="edgeStyle=orthogonalEdgeStyle;rounded=0;orthogonalLoop=1;jettySize=auto;html=1;exitX=0.5;exitY=1;exitDx=0;exitDy=0;entryX=0;entryY=0.5;entryDx=0;entryDy=0;strokeWidth=2;fontFamily=Times New Roman;fontSize=19;" parent="1" source="b3CAW3UGCJv-GjKRpFVh-2" target="b3CAW3UGCJv-GjKRpFVh-1" edge="1">
          <mxGeometry relative="1" as="geometry">
            <Array as="points">
              <mxPoint x="360" y="770" />
              <mxPoint x="240" y="770" />
              <mxPoint x="240" y="630" />
            </Array>
          </mxGeometry>
        </mxCell>
        <mxCell id="b3CAW3UGCJv-GjKRpFVh-2" value="Тело цикла" style="rounded=0;whiteSpace=wrap;html=1;strokeWidth=2;fontFamily=Times New Roman;fontSize=19;" parent="1" vertex="1">
          <mxGeometry x="300" y="690" width="120" height="60" as="geometry" />
        </mxCell>
      </root>
    </mxGraphModel>
  </diagram>
  <diagram id="3K1mUDSVWIpNwTHJqVef" name="Цикл с параметром">
    <mxGraphModel dx="1185" dy="641" grid="1" gridSize="10" guides="1" tooltips="1" connect="1" arrows="1" fold="1" page="1" pageScale="1" pageWidth="827" pageHeight="1169" math="0" shadow="0">
      <root>
        <mxCell id="hLjOWH0MUF2Db75aUkeC-0" />
        <mxCell id="hLjOWH0MUF2Db75aUkeC-1" parent="hLjOWH0MUF2Db75aUkeC-0" />
        <mxCell id="hLjOWH0MUF2Db75aUkeC-6" value="i:= 1..N" style="shape=hexagon;perimeter=hexagonPerimeter2;whiteSpace=wrap;html=1;strokeWidth=2;fontFamily=Times New Roman;fontSize=20;" vertex="1" parent="hLjOWH0MUF2Db75aUkeC-1">
          <mxGeometry x="320" y="80" width="120" height="80" as="geometry" />
        </mxCell>
        <mxCell id="hLjOWH0MUF2Db75aUkeC-7" value="Тело цикла" style="rounded=0;whiteSpace=wrap;html=1;strokeWidth=2;fontFamily=Times New Roman;fontSize=20;" vertex="1" parent="hLjOWH0MUF2Db75aUkeC-1">
          <mxGeometry x="320" y="210" width="130" height="60" as="geometry" />
        </mxCell>
        <mxCell id="hLjOWH0MUF2Db75aUkeC-8" value="" style="endArrow=classic;html=1;exitX=1;exitY=0.5;exitDx=0;exitDy=0;entryX=1;entryY=0.5;entryDx=0;entryDy=0;shadow=0;comic=0;strokeWidth=2;rounded=0;fontFamily=Times New Roman;fontSize=20;" edge="1" parent="hLjOWH0MUF2Db75aUkeC-1" source="hLjOWH0MUF2Db75aUkeC-7" target="hLjOWH0MUF2Db75aUkeC-6">
          <mxGeometry width="50" height="50" relative="1" as="geometry">
            <mxPoint x="520" y="300" as="sourcePoint" />
            <mxPoint x="570" y="250" as="targetPoint" />
            <Array as="points">
              <mxPoint x="570" y="240" />
              <mxPoint x="570" y="180" />
              <mxPoint x="570" y="120" />
            </Array>
          </mxGeometry>
        </mxCell>
        <mxCell id="hLjOWH0MUF2Db75aUkeC-9" value="" style="endArrow=classic;html=1;shadow=0;strokeWidth=2;exitX=0.549;exitY=1.029;exitDx=0;exitDy=0;exitPerimeter=0;entryX=0.5;entryY=0;entryDx=0;entryDy=0;fontFamily=Times New Roman;fontSize=20;" edge="1" parent="hLjOWH0MUF2Db75aUkeC-1" source="hLjOWH0MUF2Db75aUkeC-6" target="hLjOWH0MUF2Db75aUkeC-7">
          <mxGeometry width="50" height="50" relative="1" as="geometry">
            <mxPoint x="80" y="380" as="sourcePoint" />
            <mxPoint x="130" y="330" as="targetPoint" />
          </mxGeometry>
        </mxCell>
        <mxCell id="hLjOWH0MUF2Db75aUkeC-10" value="" style="endArrow=classic;html=1;shadow=0;strokeWidth=2;exitX=0;exitY=0.5;exitDx=0;exitDy=0;rounded=0;fontFamily=Times New Roman;fontSize=20;" edge="1" parent="hLjOWH0MUF2Db75aUkeC-1" source="hLjOWH0MUF2Db75aUkeC-6">
          <mxGeometry width="50" height="50" relative="1" as="geometry">
            <mxPoint x="170" y="210" as="sourcePoint" />
            <mxPoint x="380" y="320" as="targetPoint" />
            <Array as="points">
              <mxPoint x="210" y="120" />
              <mxPoint x="210" y="230" />
              <mxPoint x="210" y="280" />
              <mxPoint x="300" y="280" />
              <mxPoint x="380" y="280" />
            </Array>
          </mxGeometry>
        </mxCell>
      </root>
    </mxGraphModel>
  </diagram>
  <diagram id="-0E2FVr-w0xUnn1_yMbF" name="Алгоритма таблицы пифагора">
    <mxGraphModel dx="1422" dy="769" grid="1" gridSize="10" guides="1" tooltips="1" connect="1" arrows="1" fold="1" page="1" pageScale="1" pageWidth="827" pageHeight="1169" math="0" shadow="0">
      <root>
        <mxCell id="D4VVB_PMN1P16ubJQqUh-0" />
        <mxCell id="D4VVB_PMN1P16ubJQqUh-1" parent="D4VVB_PMN1P16ubJQqUh-0" />
        <mxCell id="omaCSk1JwNBtN8p-txco-0" value="Начало" style="rounded=1;whiteSpace=wrap;html=1;strokeWidth=2;fontFamily=Times New Roman;fontSize=20;arcSize=37;" parent="D4VVB_PMN1P16ubJQqUh-1" vertex="1">
          <mxGeometry x="294" y="50" width="120" height="60" as="geometry" />
        </mxCell>
        <mxCell id="omaCSk1JwNBtN8p-txco-1" value="i:=1..9" style="shape=hexagon;perimeter=hexagonPerimeter2;whiteSpace=wrap;html=1;strokeWidth=2;fontFamily=Times New Roman;fontSize=20;" parent="D4VVB_PMN1P16ubJQqUh-1" vertex="1">
          <mxGeometry x="294" y="140" width="120" height="80" as="geometry" />
        </mxCell>
        <mxCell id="omaCSk1JwNBtN8p-txco-2" value="j:=1..9" style="shape=hexagon;perimeter=hexagonPerimeter2;whiteSpace=wrap;html=1;strokeWidth=2;fontFamily=Times New Roman;fontSize=20;" parent="D4VVB_PMN1P16ubJQqUh-1" vertex="1">
          <mxGeometry x="294" y="260" width="120" height="80" as="geometry" />
        </mxCell>
        <mxCell id="omaCSk1JwNBtN8p-txco-3" style="edgeStyle=none;rounded=0;orthogonalLoop=1;jettySize=auto;html=1;exitX=0.5;exitY=1;exitDx=0;exitDy=0;shadow=0;strokeWidth=2;fontFamily=Times New Roman;fontSize=20;" parent="D4VVB_PMN1P16ubJQqUh-1" source="omaCSk1JwNBtN8p-txco-1" target="omaCSk1JwNBtN8p-txco-1" edge="1">
          <mxGeometry relative="1" as="geometry" />
        </mxCell>
        <mxCell id="omaCSk1JwNBtN8p-txco-4" value="k=i*j" style="rounded=0;whiteSpace=wrap;html=1;strokeWidth=2;fontFamily=Times New Roman;fontSize=20;" parent="D4VVB_PMN1P16ubJQqUh-1" vertex="1">
          <mxGeometry x="294" y="380" width="120" height="60" as="geometry" />
        </mxCell>
        <mxCell id="omaCSk1JwNBtN8p-txco-5" value="Вывод k" style="shape=parallelogram;html=1;strokeWidth=2;perimeter=parallelogramPerimeter;whiteSpace=wrap;rounded=1;arcSize=0;size=0.23;fontFamily=Times New Roman;fontSize=20;" parent="D4VVB_PMN1P16ubJQqUh-1" vertex="1">
          <mxGeometry x="276" y="480" width="156" height="60" as="geometry" />
        </mxCell>
        <mxCell id="omaCSk1JwNBtN8p-txco-6" value="Новая строка" style="shape=parallelogram;html=1;strokeWidth=2;perimeter=parallelogramPerimeter;whiteSpace=wrap;rounded=1;arcSize=0;size=0.23;fontFamily=Times New Roman;fontSize=20;" parent="D4VVB_PMN1P16ubJQqUh-1" vertex="1">
          <mxGeometry x="273" y="570" width="162" height="60" as="geometry" />
        </mxCell>
        <mxCell id="omaCSk1JwNBtN8p-txco-8" value="" style="endArrow=classic;html=1;shadow=0;strokeWidth=2;fontFamily=Times New Roman;fontSize=20;exitX=0.5;exitY=1;exitDx=0;exitDy=0;entryX=0.5;entryY=0;entryDx=0;entryDy=0;" parent="D4VVB_PMN1P16ubJQqUh-1" source="omaCSk1JwNBtN8p-txco-0" target="omaCSk1JwNBtN8p-txco-1" edge="1">
          <mxGeometry width="50" height="50" relative="1" as="geometry">
            <mxPoint x="160" y="210" as="sourcePoint" />
            <mxPoint x="210" y="160" as="targetPoint" />
          </mxGeometry>
        </mxCell>
        <mxCell id="omaCSk1JwNBtN8p-txco-9" value="" style="endArrow=classic;html=1;shadow=0;strokeWidth=2;fontFamily=Times New Roman;fontSize=20;exitX=0.5;exitY=1;exitDx=0;exitDy=0;entryX=0.5;entryY=0;entryDx=0;entryDy=0;" parent="D4VVB_PMN1P16ubJQqUh-1" source="omaCSk1JwNBtN8p-txco-1" target="omaCSk1JwNBtN8p-txco-2" edge="1">
          <mxGeometry width="50" height="50" relative="1" as="geometry">
            <mxPoint x="230" y="280" as="sourcePoint" />
            <mxPoint x="280" y="230" as="targetPoint" />
          </mxGeometry>
        </mxCell>
        <mxCell id="omaCSk1JwNBtN8p-txco-10" value="" style="endArrow=classic;html=1;shadow=0;strokeWidth=2;fontFamily=Times New Roman;fontSize=20;exitX=0.5;exitY=1;exitDx=0;exitDy=0;entryX=0.5;entryY=0;entryDx=0;entryDy=0;" parent="D4VVB_PMN1P16ubJQqUh-1" source="omaCSk1JwNBtN8p-txco-2" target="omaCSk1JwNBtN8p-txco-4" edge="1">
          <mxGeometry width="50" height="50" relative="1" as="geometry">
            <mxPoint x="110" y="370" as="sourcePoint" />
            <mxPoint x="361" y="379" as="targetPoint" />
          </mxGeometry>
        </mxCell>
        <mxCell id="omaCSk1JwNBtN8p-txco-11" value="" style="endArrow=classic;html=1;shadow=0;strokeWidth=2;fontFamily=Times New Roman;fontSize=20;exitX=0.5;exitY=1;exitDx=0;exitDy=0;entryX=0.5;entryY=0;entryDx=0;entryDy=0;" parent="D4VVB_PMN1P16ubJQqUh-1" source="omaCSk1JwNBtN8p-txco-4" target="omaCSk1JwNBtN8p-txco-5" edge="1">
          <mxGeometry width="50" height="50" relative="1" as="geometry">
            <mxPoint x="170" y="440" as="sourcePoint" />
            <mxPoint x="220" y="390" as="targetPoint" />
          </mxGeometry>
        </mxCell>
        <mxCell id="omaCSk1JwNBtN8p-txco-12" value="" style="endArrow=classic;html=1;shadow=0;strokeWidth=2;fontFamily=Times New Roman;fontSize=20;exitX=1;exitY=0.5;exitDx=0;exitDy=0;entryX=1;entryY=0.5;entryDx=0;entryDy=0;rounded=0;" parent="D4VVB_PMN1P16ubJQqUh-1" source="omaCSk1JwNBtN8p-txco-5" target="omaCSk1JwNBtN8p-txco-2" edge="1">
          <mxGeometry width="50" height="50" relative="1" as="geometry">
            <mxPoint x="500" y="470" as="sourcePoint" />
            <mxPoint x="550" y="420" as="targetPoint" />
            <Array as="points">
              <mxPoint x="530" y="510" />
              <mxPoint x="530" y="420" />
              <mxPoint x="530" y="300" />
            </Array>
          </mxGeometry>
        </mxCell>
        <mxCell id="omaCSk1JwNBtN8p-txco-13" value="" style="endArrow=classic;html=1;shadow=0;strokeWidth=2;fontFamily=Times New Roman;fontSize=20;exitX=0;exitY=0.5;exitDx=0;exitDy=0;entryX=0;entryY=0.25;entryDx=0;entryDy=0;rounded=0;" parent="D4VVB_PMN1P16ubJQqUh-1" source="omaCSk1JwNBtN8p-txco-2" target="omaCSk1JwNBtN8p-txco-6" edge="1">
          <mxGeometry width="50" height="50" relative="1" as="geometry">
            <mxPoint x="50" y="410" as="sourcePoint" />
            <mxPoint x="270" y="590" as="targetPoint" />
            <Array as="points">
              <mxPoint x="200" y="300" />
              <mxPoint x="200" y="440" />
              <mxPoint x="200" y="590" />
            </Array>
          </mxGeometry>
        </mxCell>
        <mxCell id="omaCSk1JwNBtN8p-txco-14" value="" style="endArrow=classic;html=1;shadow=0;strokeWidth=2;fontFamily=Times New Roman;fontSize=20;exitX=1;exitY=0.5;exitDx=0;exitDy=0;entryX=1;entryY=0.5;entryDx=0;entryDy=0;rounded=0;" parent="D4VVB_PMN1P16ubJQqUh-1" source="omaCSk1JwNBtN8p-txco-6" target="omaCSk1JwNBtN8p-txco-1" edge="1">
          <mxGeometry width="50" height="50" relative="1" as="geometry">
            <mxPoint x="590" y="630" as="sourcePoint" />
            <mxPoint x="640" y="580" as="targetPoint" />
            <Array as="points">
              <mxPoint x="570" y="600" />
              <mxPoint x="570" y="360" />
              <mxPoint x="570" y="180" />
            </Array>
          </mxGeometry>
        </mxCell>
        <mxCell id="omaCSk1JwNBtN8p-txco-15" value="" style="endArrow=classic;html=1;shadow=0;strokeWidth=2;fontFamily=Times New Roman;fontSize=20;exitX=0;exitY=0.5;exitDx=0;exitDy=0;rounded=0;" parent="D4VVB_PMN1P16ubJQqUh-1" source="omaCSk1JwNBtN8p-txco-1" edge="1">
          <mxGeometry width="50" height="50" relative="1" as="geometry">
            <mxPoint x="-40" y="370" as="sourcePoint" />
            <mxPoint x="360" y="680" as="targetPoint" />
            <Array as="points">
              <mxPoint x="150" y="180" />
              <mxPoint x="150" y="400" />
              <mxPoint x="150" y="650" />
              <mxPoint x="360" y="650" />
            </Array>
          </mxGeometry>
        </mxCell>
        <mxCell id="omaCSk1JwNBtN8p-txco-16" value="Конец" style="rounded=1;whiteSpace=wrap;html=1;strokeWidth=2;fontFamily=Times New Roman;fontSize=20;arcSize=37;" parent="D4VVB_PMN1P16ubJQqUh-1" vertex="1">
          <mxGeometry x="300" y="680" width="120" height="60" as="geometry" />
        </mxCell>
      </root>
    </mxGraphModel>
  </diagram>
  <diagram id="Kf_nAqnXkC6KkpSlQWnJ" name="Sample 7">
    <mxGraphModel dx="1434" dy="754" grid="1" gridSize="10" guides="1" tooltips="1" connect="1" arrows="1" fold="1" page="1" pageScale="1" pageWidth="827" pageHeight="1169" math="0" shadow="0">
      <root>
        <mxCell id="YyqMoOiblEze0v_NeJtD-0" />
        <mxCell id="YyqMoOiblEze0v_NeJtD-1" parent="YyqMoOiblEze0v_NeJtD-0" />
        <mxCell id="KWEIkNG2FPyalpQ-WHZS-0" value="Начало" style="rounded=1;whiteSpace=wrap;html=1;strokeWidth=2;fontFamily=Times New Roman;fontSize=20;arcSize=37;" parent="YyqMoOiblEze0v_NeJtD-1" vertex="1">
          <mxGeometry x="294" y="50" width="120" height="60" as="geometry" />
        </mxCell>
        <mxCell id="KWEIkNG2FPyalpQ-WHZS-1" value="Ввод E" style="shape=parallelogram;perimeter=parallelogramPerimeter;whiteSpace=wrap;html=1;strokeWidth=2;fontFamily=Times New Roman;fontSize=20;" parent="YyqMoOiblEze0v_NeJtD-1" vertex="1">
          <mxGeometry x="294" y="140" width="120" height="60" as="geometry" />
        </mxCell>
        <mxCell id="KWEIkNG2FPyalpQ-WHZS-2" value="&lt;div&gt;s=0&lt;/div&gt;&lt;div&gt;i=0&lt;/div&gt;&lt;div&gt;k=0&lt;/div&gt;" style="rounded=0;whiteSpace=wrap;html=1;strokeWidth=2;fontFamily=Times New Roman;fontSize=20;" parent="YyqMoOiblEze0v_NeJtD-1" vertex="1">
          <mxGeometry x="294" y="230" width="120" height="70" as="geometry" />
        </mxCell>
        <mxCell id="KWEIkNG2FPyalpQ-WHZS-3" value="&lt;div&gt;Цикл_1&lt;/div&gt;&lt;div&gt;|1/i|&amp;gt;E&lt;br&gt;&lt;/div&gt;" style="shape=loopLimit;whiteSpace=wrap;html=1;strokeWidth=2;fontFamily=Times New Roman;fontSize=20;" parent="YyqMoOiblEze0v_NeJtD-1" vertex="1">
          <mxGeometry x="510" y="225" width="126" height="80" as="geometry" />
        </mxCell>
        <mxCell id="KWEIkNG2FPyalpQ-WHZS-4" value="&lt;div&gt;s=s+k/i&lt;/div&gt;&lt;div&gt;i=i+1&lt;/div&gt;&lt;div&gt;k=k*(-1)&lt;/div&gt;" style="rounded=0;whiteSpace=wrap;html=1;strokeWidth=2;fontFamily=Times New Roman;fontSize=20;" parent="YyqMoOiblEze0v_NeJtD-1" vertex="1">
          <mxGeometry x="513" y="350" width="120" height="70" as="geometry" />
        </mxCell>
        <mxCell id="Q3eA_SRnP7RwXK7tJ2U_-0" style="edgeStyle=orthogonalEdgeStyle;rounded=0;orthogonalLoop=1;jettySize=auto;html=1;exitX=0.5;exitY=0;exitDx=0;exitDy=0;entryX=0.5;entryY=0;entryDx=0;entryDy=0;strokeWidth=2;" edge="1" parent="YyqMoOiblEze0v_NeJtD-1" source="KWEIkNG2FPyalpQ-WHZS-5" target="KWEIkNG2FPyalpQ-WHZS-6">
          <mxGeometry relative="1" as="geometry" />
        </mxCell>
        <mxCell id="KWEIkNG2FPyalpQ-WHZS-5" value="&lt;div&gt;Цикл_1&lt;/div&gt;" style="shape=loopLimit;whiteSpace=wrap;html=1;strokeWidth=2;fontFamily=Times New Roman;fontSize=20;direction=west;" parent="YyqMoOiblEze0v_NeJtD-1" vertex="1">
          <mxGeometry x="510" y="460" width="126" height="80" as="geometry" />
        </mxCell>
        <mxCell id="KWEIkNG2FPyalpQ-WHZS-6" value="Ввод s, E" style="shape=parallelogram;perimeter=parallelogramPerimeter;whiteSpace=wrap;html=1;strokeWidth=2;fontFamily=Times New Roman;fontSize=20;" parent="YyqMoOiblEze0v_NeJtD-1" vertex="1">
          <mxGeometry x="280" y="465" width="140" height="70" as="geometry" />
        </mxCell>
        <mxCell id="KWEIkNG2FPyalpQ-WHZS-7" value="Начало" style="rounded=1;whiteSpace=wrap;html=1;strokeWidth=2;fontFamily=Times New Roman;fontSize=20;arcSize=37;" parent="YyqMoOiblEze0v_NeJtD-1" vertex="1">
          <mxGeometry x="280" y="570" width="120" height="60" as="geometry" />
        </mxCell>
        <mxCell id="KWEIkNG2FPyalpQ-WHZS-8" value="" style="endArrow=none;html=1;fontFamily=Times New Roman;fontSize=20;exitX=0.5;exitY=1;exitDx=0;exitDy=0;entryX=0.5;entryY=0;entryDx=0;entryDy=0;strokeWidth=2;endFill=0;" parent="YyqMoOiblEze0v_NeJtD-1" source="KWEIkNG2FPyalpQ-WHZS-0" target="KWEIkNG2FPyalpQ-WHZS-1" edge="1">
          <mxGeometry width="50" height="50" relative="1" as="geometry">
            <mxPoint x="510" y="150" as="sourcePoint" />
            <mxPoint x="560" y="100" as="targetPoint" />
          </mxGeometry>
        </mxCell>
        <mxCell id="KWEIkNG2FPyalpQ-WHZS-9" value="" style="endArrow=none;html=1;fontFamily=Times New Roman;fontSize=20;exitX=0.5;exitY=1;exitDx=0;exitDy=0;strokeWidth=2;endFill=0;" parent="YyqMoOiblEze0v_NeJtD-1" source="KWEIkNG2FPyalpQ-WHZS-1" target="KWEIkNG2FPyalpQ-WHZS-2" edge="1">
          <mxGeometry width="50" height="50" relative="1" as="geometry">
            <mxPoint x="220" y="320" as="sourcePoint" />
            <mxPoint x="270" y="270" as="targetPoint" />
            <Array as="points">
              <mxPoint x="354" y="220" />
            </Array>
          </mxGeometry>
        </mxCell>
        <mxCell id="KWEIkNG2FPyalpQ-WHZS-10" value="" style="endArrow=none;html=1;strokeWidth=2;fontFamily=Times New Roman;fontSize=20;exitX=1;exitY=0.5;exitDx=0;exitDy=0;entryX=0;entryY=0.5;entryDx=0;entryDy=0;endFill=0;" parent="YyqMoOiblEze0v_NeJtD-1" source="KWEIkNG2FPyalpQ-WHZS-2" target="KWEIkNG2FPyalpQ-WHZS-3" edge="1">
          <mxGeometry width="50" height="50" relative="1" as="geometry">
            <mxPoint x="240" y="440" as="sourcePoint" />
            <mxPoint x="290" y="390" as="targetPoint" />
          </mxGeometry>
        </mxCell>
        <mxCell id="KWEIkNG2FPyalpQ-WHZS-11" value="" style="endArrow=none;html=1;strokeWidth=2;fontFamily=Times New Roman;fontSize=20;exitX=0.5;exitY=1;exitDx=0;exitDy=0;entryX=0.5;entryY=0;entryDx=0;entryDy=0;endFill=0;" parent="YyqMoOiblEze0v_NeJtD-1" source="KWEIkNG2FPyalpQ-WHZS-3" target="KWEIkNG2FPyalpQ-WHZS-4" edge="1">
          <mxGeometry width="50" height="50" relative="1" as="geometry">
            <mxPoint x="690" y="340" as="sourcePoint" />
            <mxPoint x="740" y="290" as="targetPoint" />
          </mxGeometry>
        </mxCell>
        <mxCell id="KWEIkNG2FPyalpQ-WHZS-12" value="" style="endArrow=none;html=1;strokeWidth=2;fontFamily=Times New Roman;fontSize=20;exitX=0.5;exitY=1;exitDx=0;exitDy=0;entryX=0.5;entryY=1;entryDx=0;entryDy=0;endFill=0;" parent="YyqMoOiblEze0v_NeJtD-1" source="KWEIkNG2FPyalpQ-WHZS-4" target="KWEIkNG2FPyalpQ-WHZS-5" edge="1">
          <mxGeometry width="50" height="50" relative="1" as="geometry">
            <mxPoint x="700" y="440" as="sourcePoint" />
            <mxPoint x="750" y="390" as="targetPoint" />
          </mxGeometry>
        </mxCell>
        <mxCell id="KWEIkNG2FPyalpQ-WHZS-14" value="" style="endArrow=none;html=1;strokeWidth=2;fontFamily=Times New Roman;fontSize=20;entryX=0.5;entryY=0;entryDx=0;entryDy=0;endFill=0;" parent="YyqMoOiblEze0v_NeJtD-1" target="KWEIkNG2FPyalpQ-WHZS-7" edge="1">
          <mxGeometry width="50" height="50" relative="1" as="geometry">
            <mxPoint x="340" y="537" as="sourcePoint" />
            <mxPoint x="230" y="510" as="targetPoint" />
          </mxGeometry>
        </mxCell>
      </root>
    </mxGraphModel>
  </diagram>
</mxfile>
